<svg width="87" height="15" viewBox="0 0 87 15" fill="none" xmlns="http://www.w3.org/2000/svg">
<path d="M11.5808 1.8V9.576C11.5808 11.2293 11.1275 12.4987 10.2208 13.384C9.32481 14.2693 8.08215 14.712 6.49281 14.712C5.55415 14.712 4.70081 14.5733 3.93281 14.296C3.16481 14.0293 2.51414 13.6453 1.98081 13.144L2.82881 11.544C3.82081 12.44 5.03148 12.888 6.46081 12.888C8.48748 12.888 9.50081 11.816 9.50081 9.672V8.824C8.74348 9.784 7.64481 10.264 6.20481 10.264C4.78614 10.264 3.68748 9.85867 2.90881 9.048C2.13014 8.23733 1.74081 7.07467 1.74081 5.56V1.8H3.82081V5.464C3.82081 6.44533 4.05548 7.192 4.52481 7.704C5.00481 8.20533 5.67148 8.456 6.52481 8.456C7.43148 8.456 8.15148 8.18933 8.68481 7.656C9.22881 7.112 9.50081 6.312 9.50081 5.256V1.8H11.5808ZM22.2549 4.456V13H20.3509V11.912C20.0309 12.296 19.6309 12.5947 19.1509 12.808C18.6709 13.0107 18.1536 13.112 17.5989 13.112C16.4576 13.112 15.5563 12.7973 14.8949 12.168C14.2443 11.528 13.9189 10.584 13.9189 9.336V4.456H15.9189V9.064C15.9189 9.832 16.0896 10.408 16.4309 10.792C16.7829 11.1653 17.2789 11.352 17.9189 11.352C18.6336 11.352 19.1989 11.1333 19.6149 10.696C20.0416 10.248 20.2549 9.608 20.2549 8.776V4.456H22.2549ZM35.3376 4.36C36.4149 4.36 37.2682 4.67467 37.8976 5.304C38.5269 5.92267 38.8416 6.856 38.8416 8.104V13H36.8416V8.36C36.8416 7.61333 36.6762 7.05333 36.3456 6.68C36.0149 6.296 35.5402 6.104 34.9216 6.104C34.2496 6.104 33.7109 6.328 33.3056 6.776C32.9002 7.21333 32.6976 7.84267 32.6976 8.664V13H30.6976V8.36C30.6976 7.61333 30.5322 7.05333 30.2016 6.68C29.8709 6.296 29.3962 6.104 28.7776 6.104C28.0949 6.104 27.5509 6.32267 27.1456 6.76C26.7509 7.19733 26.5536 7.832 26.5536 8.664V13H24.5536V4.456H26.4576V5.544C26.7776 5.16 27.1776 4.86667 27.6576 4.664C28.1376 4.46133 28.6709 4.36 29.2576 4.36C29.8976 4.36 30.4629 4.48267 30.9536 4.728C31.4549 4.96267 31.8496 5.31467 32.1376 5.784C32.4896 5.336 32.9429 4.98933 33.4976 4.744C34.0522 4.488 34.6656 4.36 35.3376 4.36ZM41.0773 4.456H43.0773V13H41.0773V4.456ZM42.0853 3.048C41.7226 3.048 41.4186 2.936 41.1733 2.712C40.928 2.47733 40.8053 2.18933 40.8053 1.848C40.8053 1.50667 40.928 1.224 41.1733 0.999999C41.4186 0.765333 41.7226 0.648 42.0853 0.648C42.448 0.648 42.752 0.76 42.9973 0.983999C43.2426 1.19733 43.3653 1.46933 43.3653 1.8C43.3653 2.152 43.2426 2.45067 42.9973 2.696C42.7626 2.93067 42.4586 3.048 42.0853 3.048ZM53.3823 4.456L49.7183 13H47.6543L43.9903 4.456H46.0703L48.7263 10.792L51.4623 4.456H53.3823ZM58.1419 11.416C59.0699 11.416 59.8433 11.1067 60.4619 10.488L61.5179 11.72C61.1446 12.1787 60.6646 12.5253 60.0779 12.76C59.4913 12.9947 58.8299 13.112 58.0939 13.112C57.1553 13.112 56.3286 12.9253 55.6139 12.552C54.8993 12.1787 54.3446 11.6613 53.9499 11C53.5659 10.328 53.3739 9.57067 53.3739 8.728C53.3739 7.896 53.5606 7.14933 53.9339 6.488C54.3179 5.816 54.8406 5.29333 55.5019 4.92C56.1739 4.54667 56.9313 4.36 57.7739 4.36C58.5739 4.36 59.2993 4.536 59.9499 4.888C60.6113 5.22933 61.1339 5.72533 61.5179 6.376C61.9019 7.016 62.0939 7.768 62.0939 8.632L55.5499 9.912C55.7526 10.4027 56.0779 10.776 56.5259 11.032C56.9739 11.288 57.5126 11.416 58.1419 11.416ZM57.7739 5.96C57.0379 5.96 56.4406 6.2 55.9819 6.68C55.5339 7.16 55.3099 7.80533 55.3099 8.616V8.632L60.1419 7.704C60.0033 7.18133 59.7206 6.76 59.2939 6.44C58.8779 6.12 58.3713 5.96 57.7739 5.96ZM65.5994 5.704C66.1754 4.808 67.1888 4.36 68.6394 4.36V6.264C68.4688 6.232 68.3141 6.216 68.1754 6.216C67.3968 6.216 66.7888 6.44533 66.3514 6.904C65.9141 7.352 65.6954 8.00267 65.6954 8.856V13H63.6954V4.456H65.5994V5.704ZM72.6873 13.112C71.994 13.112 71.3166 13.0213 70.6553 12.84C69.994 12.6587 69.466 12.4293 69.0713 12.152L69.8393 10.632C70.2233 10.888 70.682 11.096 71.2153 11.256C71.7593 11.4053 72.2926 11.48 72.8153 11.48C74.01 11.48 74.6073 11.1653 74.6073 10.536C74.6073 10.2373 74.4526 10.0293 74.1433 9.912C73.8446 9.79467 73.3593 9.68267 72.6873 9.576C71.9833 9.46933 71.4073 9.34667 70.9593 9.208C70.522 9.06933 70.138 8.82933 69.8073 8.488C69.4873 8.136 69.3273 7.65067 69.3273 7.032C69.3273 6.22133 69.6633 5.576 70.3353 5.096C71.018 4.60533 71.9353 4.36 73.0873 4.36C73.674 4.36 74.2606 4.42933 74.8473 4.568C75.434 4.696 75.914 4.872 76.2873 5.096L75.5193 6.616C74.794 6.18933 73.978 5.976 73.0713 5.976C72.4846 5.976 72.0366 6.06667 71.7273 6.248C71.4286 6.41867 71.2793 6.648 71.2793 6.936C71.2793 7.256 71.4393 7.48533 71.7593 7.624C72.09 7.752 72.5966 7.87467 73.2793 7.992C73.962 8.09867 74.522 8.22133 74.9593 8.36C75.3966 8.49867 75.77 8.73333 76.0793 9.064C76.3993 9.39467 76.5593 9.864 76.5593 10.472C76.5593 11.272 76.2126 11.912 75.5193 12.392C74.826 12.872 73.882 13.112 72.6873 13.112ZM82.0257 11.416C82.9537 11.416 83.727 11.1067 84.3457 10.488L85.4017 11.72C85.0284 12.1787 84.5484 12.5253 83.9617 12.76C83.375 12.9947 82.7137 13.112 81.9777 13.112C81.039 13.112 80.2124 12.9253 79.4977 12.552C78.783 12.1787 78.2284 11.6613 77.8337 11C77.4497 10.328 77.2577 9.57067 77.2577 8.728C77.2577 7.896 77.4444 7.14933 77.8177 6.488C78.2017 5.816 78.7244 5.29333 79.3857 4.92C80.0577 4.54667 80.815 4.36 81.6577 4.36C82.4577 4.36 83.183 4.536 83.8337 4.888C84.495 5.22933 85.0177 5.72533 85.4017 6.376C85.7857 7.016 85.9777 7.768 85.9777 8.632L79.4337 9.912C79.6364 10.4027 79.9617 10.776 80.4097 11.032C80.8577 11.288 81.3964 11.416 82.0257 11.416ZM81.6577 5.96C80.9217 5.96 80.3244 6.2 79.8657 6.68C79.4177 7.16 79.1937 7.80533 79.1937 8.616V8.632L84.0257 7.704C83.887 7.18133 83.6044 6.76 83.1777 6.44C82.7617 6.12 82.255 5.96 81.6577 5.96Z" fill="#180801"/>
</svg>
